<svg width="512" height="512" viewBox="0 0 512 512" xmlns="http://www.w3.org/2000/svg" role="img" aria-label="Pinterest Eagle Importer Icon">
  <defs>
    <linearGradient id="bg" x1="0" y1="0" x2="1" y2="1">
      <stop offset="0%" stop-color="#ef4444"/>
      <stop offset="100%" stop-color="#7c3aed"/>
    </linearGradient>
    <filter id="shadow" x="-20%" y="-20%" width="140%" height="140%">
      <feDropShadow dx="0" dy="8" stdDeviation="10" flood-color="#000" flood-opacity="0.25"/>
    </filter>
  </defs>
  <rect x="24" y="24" width="464" height="464" rx="104" fill="url(#bg)"/>
  <g filter="url(#shadow)">
    <circle cx="200" cy="220" r="78" fill="#fff"/>
    <path d="M200 154c-38 0-69 29-69 66 0 28 16 49 39 57-1-5-2-14 1-22l12-49c-2-5-4-11-4-18 0-17 10-30 23-30 11 0 16 8 16 18 0 11-7 28-11 43-3 12 6 22 18 22 21 0 35-27 35-58 0-24-16-42-46-42-34 0-56 25-56 54 0 10 3 16 8 22 2 2 2 4 1 7l-3 11c-1 4-5 6-9 4-17-7-25-25-25-45 0-33 28-73 85-73 46 0 77 32 77 66 0 45-25 79-62 79-12 0-24-6-28-14l-8 29c-3 12-10 24-17 33 13 4 26 6 40 6 73 0 132-58 132-130S273 90 200 90 68 148 68 220s59 130 132 130c67 0 123-50 131-114l67 0v-32h-66c-8-70-67-124-138-124z" fill="#ef4444"/>
  </g>
  <g transform="translate(302 298)">
    <rect x="0" y="0" width="136" height="136" rx="24" fill="#0f172a"/>
    <path d="M24 68h88M68 24v88" stroke="#22d3ee" stroke-width="14" stroke-linecap="round"/>
    <circle cx="68" cy="68" r="42" fill="none" stroke="#38bdf8" stroke-width="8" opacity="0.55"/>
  </g>
</svg>
